<?xml version="1.0" standalone="no"?>
<!DOCTYPE svg PUBLIC "-//W3C//DTD SVG 20010904//EN"
 "http://www.w3.org/TR/2001/REC-SVG-20010904/DTD/svg10.dtd">
<svg version="1.0" xmlns="http://www.w3.org/2000/svg"
 width="324.000000pt" height="324.000000pt" viewBox="0 0 324.000000 324.000000"
 preserveAspectRatio="xMidYMid meet">

<g transform="translate(0.000000,324.000000) scale(0.100000,-0.100000)"
fill="#000000" stroke="none">
<path d="M0 1620 l0 -1620 1620 0 1620 0 0 1620 0 1620 -1620 0 -1620 0 0
-1620z m1846 1298 l354 -223 -3 -1205 -2 -1205 -265 -37 c-434 -61 -428 -60
-555 -38 -117 21 -162 28 -182 29 -10 1 -13 275 -13 1339 l1 1337 150 113 c83
61 153 112 156 112 3 0 165 -100 359 -222z"/>
</g>
</svg>
