<?xml version="1.0" standalone="no"?>
<!DOCTYPE svg PUBLIC "-//W3C//DTD SVG 20010904//EN"
 "http://www.w3.org/TR/2001/REC-SVG-20010904/DTD/svg10.dtd">
<svg version="1.0" xmlns="http://www.w3.org/2000/svg"
 width="322.000000pt" height="322.000000pt" viewBox="0 0 322.000000 322.000000"
 preserveAspectRatio="xMidYMid meet">

<g transform="translate(0.000000,322.000000) scale(0.100000,-0.100000)"
fill="#000000" stroke="none">
<path d="M1526 3102 c-3 -5 36 -34 87 -66 199 -124 376 -236 495 -312 l82 -54
0 -1199 c0 -1031 -2 -1200 -14 -1211 -8 -6 -48 -16 -88 -21 -40 -5 -107 -14
-148 -20 -41 -6 -122 -17 -180 -24 -58 -7 -142 -19 -188 -26 -74 -11 -87 -10
-119 5 -20 9 -84 24 -142 33 -58 8 -112 20 -118 25 -10 8 -13 285 -13 1323 l0
1313 33 29 c18 16 75 60 125 98 51 37 92 75 92 83 0 19 -88 10 -224 -25 -343
-86 -630 -264 -848 -524 -167 -199 -293 -475 -323 -706 -4 -29 -13 -57 -21
-64 -21 -17 -20 -300 1 -332 8 -13 19 -52 25 -87 81 -518 490 -984 1020 -1163
339 -114 612 -128 945 -46 477 116 869 432 1068 859 46 99 97 271 111 371 4
26 13 55 21 65 21 27 21 316 1 333 -8 7 -17 35 -21 64 -8 60 -38 181 -61 247
-173 487 -592 858 -1114 985 -187 46 -468 73 -484 47z"/>
<path d="M1567 1794 c-13 -13 -7 -42 10 -48 21 -8 36 6 31 30 -3 19 -29 30
-41 18z"/>
</g>
</svg>
