<?xml version="1.0" standalone="no"?>
<!DOCTYPE svg PUBLIC "-//W3C//DTD SVG 20010904//EN"
 "http://www.w3.org/TR/2001/REC-SVG-20010904/DTD/svg10.dtd">
<svg version="1.0" xmlns="http://www.w3.org/2000/svg"
 width="1153.000000pt" height="307.000000pt" viewBox="0 0 1153.000000 307.000000"
 preserveAspectRatio="xMidYMid meet">

<g transform="translate(0.000000,307.000000) scale(0.100000,-0.100000)"
fill="#000000" stroke="none">
<path d="M1420 2976 c0 -2 149 -97 330 -211 l330 -208 0 -1143 0 -1144 -22 -5
c-13 -2 -79 -12 -148 -20 -69 -9 -205 -27 -304 -41 -174 -25 -181 -25 -275
-10 -53 9 -121 19 -151 24 l-55 7 -3 1267 -2 1267 127 97 c71 54 133 102 138
107 18 17 -124 -2 -245 -33 -281 -71 -511 -201 -715 -405 -276 -274 -419 -613
-419 -990 0 -377 143 -716 419 -990 204 -204 445 -339 725 -408 870 -213 1742
322 1896 1163 23 127 23 343 0 470 -129 708 -763 1210 -1527 1210 -54 0 -99
-2 -99 -4z"/>
<path d="M3920 2009 c-304 -50 -629 -469 -690 -888 -18 -120 -8 -300 19 -373
44 -114 138 -165 286 -156 204 13 381 194 581 593 l75 150 -7 -370 c-5 -265
-4 -377 4 -392 17 -30 67 -49 98 -35 l24 12 -20 37 c-19 36 -20 56 -20 443 0
279 3 409 11 417 6 6 9 21 7 33 -7 50 -21 49 -325 -28 -333 -85 -358 -94 -358
-137 0 -26 4 -30 32 -33 19 -2 108 21 220 57 212 67 303 92 303 83 0 -15 -201
-384 -246 -453 -27 -40 -75 -102 -108 -137 -106 -113 -184 -153 -297 -154 -97
0 -143 26 -177 100 -51 110 -40 345 25 525 65 182 165 341 297 473 100 99 200
159 288 170 80 11 95 2 109 -64 15 -71 25 -83 39 -48 28 74 0 160 -59 176 -40
11 -35 11 -111 -1z"/>
<path d="M5553 1958 c-4 -7 -33 -89 -64 -183 -94 -285 -138 -355 -222 -355
-28 0 -46 8 -74 34 -39 35 -63 78 -151 268 -59 125 -79 148 -127 148 -19 0
-35 -3 -35 -6 0 -4 15 -32 34 -63 18 -31 60 -111 94 -178 103 -207 166 -283
234 -283 41 0 69 14 112 56 35 35 38 37 32 14 -14 -56 -95 -469 -101 -522 -6
-51 -5 -57 14 -63 24 -7 65 18 105 66 25 29 25 32 10 61 -13 26 -14 44 -4 137
24 227 77 443 165 680 50 135 54 160 27 184 -22 20 -38 22 -49 5z"/>
<path d="M10880 1918 c0 -11 16 -49 35 -84 39 -70 202 -425 211 -459 3 -14 -6
-45 -24 -81 -38 -77 -125 -284 -150 -360 -29 -86 -36 -129 -23 -153 20 -37 46
-25 92 45 24 36 48 72 54 79 6 10 3 20 -9 34 -17 19 -18 25 -6 64 15 53 111
257 119 257 4 0 17 -23 29 -51 31 -75 146 -268 185 -314 34 -39 35 -40 55 -21
40 36 94 245 61 234 -6 -2 -20 -28 -31 -56 -14 -37 -25 -52 -36 -50 -9 2 -35
32 -59 68 -48 71 -153 274 -153 295 0 12 137 267 188 350 13 22 45 62 71 88
51 53 47 67 -18 67 -51 0 -93 -52 -194 -243 -49 -92 -93 -167 -97 -167 -5 0
-12 10 -15 23 -21 69 -177 367 -215 410 -45 51 -70 60 -70 25z"/>
<path d="M8284 1903 c-11 -11 -29 -16 -55 -14 -47 3 -39 20 -119 -254 -32
-110 -69 -234 -82 -275 l-24 -75 -99 -22 c-173 -38 -177 -39 -173 -76 4 -42
29 -45 136 -18 44 12 85 21 91 21 5 0 -1 -30 -16 -67 -56 -148 -143 -413 -143
-437 0 -19 7 -27 27 -32 39 -10 56 6 76 72 10 32 50 156 88 275 l71 217 42 7
c240 40 392 62 398 57 3 -4 15 -54 27 -112 11 -58 31 -165 46 -238 14 -73 32
-144 41 -157 18 -28 46 -32 64 -10 16 19 13 33 -44 305 -25 118 -46 218 -46
222 0 4 20 13 45 19 42 11 75 39 75 64 0 6 -6 19 -13 29 -13 18 -15 17 -55 -3
-73 -37 -72 -38 -125 132 -71 225 -155 387 -201 387 -8 0 -22 -8 -32 -17z m80
-177 c43 -87 131 -359 117 -363 -25 -8 -385 -62 -389 -59 -7 8 137 445 165
499 23 47 25 48 43 32 11 -10 40 -59 64 -109z"/>
<path d="M6356 1887 c-25 -25 -40 -89 -55 -232 -39 -362 -13 -649 71 -807 94
-177 249 -115 439 175 65 99 174 305 215 406 8 18 13 -35 21 -205 12 -244 29
-335 73 -382 25 -26 38 -27 68 -6 28 20 28 27 -6 77 -16 23 -34 58 -41 77 -15
43 -30 347 -31 620 0 219 -7 258 -46 252 -10 -2 -21 -6 -23 -8 -3 -2 -10 -66
-17 -141 -16 -169 -38 -243 -122 -407 -140 -277 -299 -466 -391 -466 -30 0
-77 45 -96 92 -63 159 -72 632 -15 848 11 41 20 85 20 96 0 32 -37 38 -64 11z"/>
<path d="M10122 1850 c-12 -5 -25 -17 -29 -26 -3 -9 1 -105 11 -213 9 -108 21
-279 26 -381 6 -102 14 -203 20 -225 5 -22 8 -41 6 -42 -1 -1 -38 46 -83 105
-221 293 -470 612 -509 652 -37 37 -47 43 -62 34 -15 -10 -18 -39 -24 -255 -4
-134 -12 -329 -18 -434 -11 -203 -7 -225 37 -211 38 12 43 48 44 289 1 128 4
290 8 361 l6 130 90 -130 c150 -217 380 -517 473 -617 47 -49 66 -56 96 -34
17 12 17 22 6 138 -6 68 -15 279 -20 469 -4 209 -12 356 -18 373 -12 28 -23
32 -60 17z"/>
</g>
</svg>
