<?xml version="1.0" encoding="utf-8"?>
<!-- Generator: Adobe Illustrator 25.0.1, SVG Export Plug-In . SVG Version: 6.00 Build 0)  -->
<svg version="1.1" id="Layer_1" xmlns="http://www.w3.org/2000/svg" xmlns:xlink="http://www.w3.org/1999/xlink" x="0px" y="0px"
	 viewBox="0 0 1501.3 321.3" style="enable-background:new 0 0 1501.3 321.3;" xml:space="preserve">
<style type="text/css">
	.st0{fill:#FFFFFF;}
	.st1{fill:#12C7BA;}
</style>
<g>
	<g>
		<path class="st0" d="M886.1,75.7l-65,56l-65-56c-5.2-4.5-11.9-7-18.8-7l-56.5,0l106.7,91.9l-106.7,91.9l56.5,0
			c6.9,0,13.6-2.5,18.8-7l65-56l65,56c5.2,4.5,11.9,7,18.8,7l56.5,0l-106.7-91.9l106.7-91.9h-56.5C898,68.7,891.3,71.2,886.1,75.7z"
			/>
		<path class="st0" d="M1501.3,68.7h-43v128.4L1299.2,74.7c-5-3.9-11.2-6-17.6-6h-30.9v183.9h43V124.2l159.1,122.4
			c5,3.9,11.2,6,17.6,6h30.9V68.7z"/>
		<path class="st0" d="M1212,107.9V68.7l-205.7,0c-22.5,25.9-34.5,58-34.5,91.9c0,33.9,12,66.1,34.5,91.9H1212v-39.1h-184.4
			c-5.1-9.6-8.8-20.3-10.7-33.2h180.3v-41.1h-180c2-12,5.6-22.2,10.4-31.3H1212z"/>
		<path class="st0" d="M674.4,160.7c0-55.4-34-91.9-34-91.9l-193.1,0c0,0-34,36.6-34,91.9s34,91.9,34,91.9h193.1
			C640.4,252.6,674.4,216,674.4,160.7z M469.6,213.2c-8.7-15.8-13.3-33.9-13.3-52.5c0-18.6,4.6-36.7,13.3-52.5h148.6
			c8.7,15.8,13.3,33.9,13.3,52.5c0,18.6-4.6,36.7-13.3,52.5H469.6z"/>
	</g>
	<g>
		<circle class="st0" cx="160.6" cy="160.6" r="160.6"/>
		<g>
			<polygon class="st1" points="67.6,80.5 160.6,160.6 253.7,80.5 			"/>
			<polygon class="st1" points="253.7,240.8 160.6,160.6 67.6,240.8 			"/>
		</g>
	</g>
</g>
</svg>
